<?xml version="1.0" standalone="no"?><!DOCTYPE svg PUBLIC "-//W3C//DTD SVG 1.1//EN" "http://www.w3.org/Graphics/SVG/1.1/DTD/svg11.dtd"><svg t="1630933853801" class="icon" viewBox="0 0 1024 1024" version="1.1" xmlns="http://www.w3.org/2000/svg" p-id="14039" xmlns:xlink="http://www.w3.org/1999/xlink" width="200" height="200"><defs><style type="text/css"></style></defs><path d="M808.40704 455.68l0 112.64c0 8.47872-6.87104 15.36-15.36 15.36L584.83712 583.68l0 208.20992c0 8.48896-6.88128 15.36-15.36 15.36l-112.64 0c-8.47872 0-15.36-6.87104-15.36-15.36L441.47712 583.68 233.2672 583.68c-8.48896 0-15.36-6.88128-15.36-15.36l0-112.64c0-8.47872 6.87104-15.36 15.36-15.36l208.20992 0L441.47712 232.11008c0-8.48896 6.88128-15.36 15.36-15.36l112.64 0c8.47872 0 15.36 6.87104 15.36 15.36L584.83712 440.32l208.20992 0C801.536 440.32 808.40704 447.20128 808.40704 455.68z" p-id="14040" fill="#e6e6e6"></path></svg>